<?xml version="1.0" encoding="utf-8"?>
<!-- Generator: Adobe Illustrator 16.0.0, SVG Export Plug-In . SVG Version: 6.00 Build 0)  -->
<!DOCTYPE svg PUBLIC "-//W3C//DTD SVG 1.1//EN" "http://www.w3.org/Graphics/SVG/1.1/DTD/svg11.dtd">
<svg version="1.1" id="icons" xmlns="http://www.w3.org/2000/svg" xmlns:xlink="http://www.w3.org/1999/xlink" x="0px" y="0px"
	 width="64px" height="64px" viewBox="0 0 64 64" enable-background="new 0 0 64 64" xml:space="preserve">
<g>
	<path d="M55.5,64c0.553,0,1-0.447,1-1V53V1c0-0.553-0.447-1-1-1h-42c-3.309,0-6,2.691-6,6v52c0,3.309,2.691,6,6,6H55.5z M54.5,52
		h-38V2h38V52z M52.5,54h2v8h-2V54z M13.5,2h1v50h-1c-1.537,0-2.938,0.586-4,1.54V6C9.5,3.794,11.294,2,13.5,2z M9.5,58
		c0-2.206,1.794-4,4-4h37v3.002h-37c-0.553,0-1,0.447-1,1s0.447,1,1,1h37V62h-37C11.294,62,9.5,60.206,9.5,58z"/>
	<path d="M21.503,16.999c0,2.967,2.166,5.431,4.999,5.909v9.09c0,0.553,0.447,1,1,1h16.001c0.553,0,1-0.447,1-1v-9.09
		c2.832-0.479,4.998-2.942,4.998-5.909c0-3.309-2.691-6-6-6h-2.263c-1.267-1.811-3.364-3-5.736-3s-4.47,1.189-5.736,3h-2.264l0,0
		C24.193,11,21.503,13.69,21.503,16.999z M28.502,30h14.001v0.998H28.502V30z M27.503,12.999h1.294
		c-0.189,0.635-0.295,1.305-0.295,2c0,0.553,0.447,1,1,1s1-0.447,1-1c0-2.757,2.243-5,5-5s5,2.243,5,5c0,0.553,0.447,1,1,1
		s1-0.447,1-1c0-0.695-0.105-1.365-0.295-2h1.294c2.206,0,4,1.794,4,4c0,2.203-1.79,3.995-3.992,3.999
		c-0.002,0-0.004-0.001-0.006-0.001c-0.276,0-0.527,0.112-0.708,0.294c-0.182,0.181-0.294,0.432-0.294,0.708
		c0,0.003,0.002,0.006,0.002,0.01V28H28.502v-5.996c0-0.002,0.001-0.003,0.001-0.005c0-0.139-0.028-0.271-0.079-0.391
		c-0.151-0.359-0.507-0.611-0.922-0.611c-0.002,0-0.004,0.001-0.006,0.001c-2.203-0.004-3.993-1.795-3.993-3.999
		C23.503,14.793,25.297,12.999,27.503,12.999z"/>
	<path d="M46.499,36.999H24.505c-0.553,0-1,0.447-1,1s0.447,1,1,1h21.994c0.553,0,1-0.447,1-1S47.052,36.999,46.499,36.999z"/>
	<path d="M46.499,39.999H24.505c-0.553,0-1,0.447-1,1s0.447,1,1,1h21.994c0.553,0,1-0.447,1-1S47.052,39.999,46.499,39.999z"/>
	<path d="M41.5,43.025H29.504c-0.553,0-1,0.447-1,1s0.447,1,1,1H41.5c0.553,0,1-0.447,1-1S42.053,43.025,41.5,43.025z"/>
</g>
</svg>
